<?xml version="1.0" standalone="no"?>
<!DOCTYPE svg PUBLIC "-//W3C//DTD SVG 20010904//EN"
 "http://www.w3.org/TR/2001/REC-SVG-20010904/DTD/svg10.dtd">
<svg version="1.0" xmlns="http://www.w3.org/2000/svg"
 width="50.000000pt" height="29.000000pt" viewBox="0 0 50.000000 29.000000"
 preserveAspectRatio="xMidYMid meet">
<metadata>
Created by potrace 1.14, written by Peter Selinger 2001-2017
</metadata>
<g transform="translate(0.000000,29.000000) scale(0.100000,-0.100000)"
fill="#000000" stroke="none">
<path d="M120 224 c-25 -64 2 -139 59 -169 33 -17 51 -19 51 -7 0 4 -15 12
-32 17 -31 9 -78 64 -78 89 0 6 9 -3 21 -21 22 -35 67 -68 77 -57 4 4 1 9 -7
12 -25 8 -96 90 -87 99 2 3 20 -12 38 -32 35 -41 82 -65 124 -65 35 0 26 -21
-17 -36 -19 -7 -26 -13 -16 -13 22 -1 87 28 87 38 0 4 -5 12 -11 18 -7 7 -2
15 15 27 15 9 26 21 26 26 0 5 -16 -2 -36 -15 -39 -26 -79 -32 -104 -14 -12 9
-11 10 7 6 13 -3 26 -1 29 4 3 5 -2 9 -10 9 -8 0 -27 5 -43 12 -15 6 -32 12
-37 12 -5 1 -11 7 -13 13 -3 9 5 9 31 -2 41 -17 93 -19 132 -5 39 15 25 21
-22 9 -58 -15 -120 3 -142 42 -21 36 -30 36 -42 3z"/>
<path d="M359 206 c-1 -3 -2 -12 -3 -18 0 -7 -19 -22 -41 -32 -21 -11 -34 -21
-28 -23 7 -3 27 4 45 13 18 10 38 18 43 19 14 0 12 38 -2 43 -7 2 -14 1 -14
-2z"/>
<path d="M238 68 c8 -8 17 -8 34 0 22 10 21 11 -11 11 -27 1 -32 -2 -23 -11z"/>
</g>
</svg>
